<?xml version="1.0" encoding="UTF-8" standalone="no"?>
<!-- Created with Inkscape (http://www.inkscape.org/) -->

<svg
   width="215.26886mm"
   height="90.907341mm"
   viewBox="0 0 215.26886 90.907341"
   version="1.1"
   id="svg5"
   inkscape:version="1.1.1 (3bf5ae0d25, 2021-09-20)"
   sodipodi:docname="medal-hanger-badminton.svg"
   xmlns:inkscape="http://www.inkscape.org/namespaces/inkscape"
   xmlns:sodipodi="http://sodipodi.sourceforge.net/DTD/sodipodi-0.dtd"
   xmlns="http://www.w3.org/2000/svg"
   xmlns:svg="http://www.w3.org/2000/svg">
  <sodipodi:namedview
     id="namedview7"
     pagecolor="#ffffff"
     bordercolor="#666666"
     borderopacity="1.0"
     inkscape:pageshadow="2"
     inkscape:pageopacity="0.0"
     inkscape:pagecheckerboard="0"
     inkscape:document-units="mm"
     showgrid="false"
     fit-margin-top="10"
     fit-margin-left="10"
     fit-margin-right="10"
     fit-margin-bottom="10"
     inkscape:zoom="0.64052329"
     inkscape:cx="406.69872"
     inkscape:cy="172.51519"
     inkscape:window-width="1920"
     inkscape:window-height="1017"
     inkscape:window-x="-8"
     inkscape:window-y="-8"
     inkscape:window-maximized="1"
     inkscape:current-layer="layer1" />
  <defs
     id="defs2" />
  <g
     inkscape:label="Calque 1"
     inkscape:groupmode="layer"
     id="layer1"
     transform="translate(2.5612907,-103.05503)">
    <path
       style="display:inline;fill:#000000;stroke-width:0.260733"
       d="m 16.044422,183.55995 c -0.461436,-0.25057 -0.869143,-0.84283 -1.204357,-1.74951 -1.280497,-3.46346 -2.580548,-7.15428 -5.0215568,-14.25609 -3.1114534,-9.05238 -3.1044519,-8.88578 -0.373427,-8.88578 1.6800698,0 1.7042408,-0.01 1.4028128,-0.5731 -0.168693,-0.3152 -0.311838,-1.16584 -0.318101,-1.89031 -0.02155,-2.49323 1.732371,-4.67234 4.981325,-6.18889 0.963797,-0.44988 2.148057,-1.00441 2.631688,-1.2323 0.483632,-0.22788 1.216293,-0.82499 1.628135,-1.3269 1.52293,-1.85599 6.132924,-8.65446 7.243017,-10.68145 2.677413,-4.88886 7.48751,-9.5199 8.383012,-8.07095 0.179139,0.28986 0.381986,0.27315 1.154157,-0.0951 0.515249,-0.2457 1.277232,-0.44673 1.693294,-0.44673 0.628939,0 0.812526,0.155 1.088939,0.91941 0.191792,0.5304 0.466896,0.86782 0.650191,0.79748 0.898232,-0.34468 2.137142,-0.41658 2.804735,-0.16276 0.71363,0.27132 0.742681,0.34445 0.602451,1.51651 -0.08103,0.6773 -0.215357,1.40744 -0.298491,1.62254 -0.127027,0.32866 0.199622,0.3911 2.04608,0.3911 1.20848,0 2.278793,0.0818 2.378471,0.1817 0.223641,0.22421 -0.829714,3.77253 -1.185121,3.99218 -0.581554,0.35942 -0.213571,0.66511 0.613801,0.50989 1.009541,-0.18939 2.969085,0.26948 3.616111,0.8468 0.419443,0.37425 0.413827,0.46147 -0.09496,1.47496 -0.297423,0.59245 -0.82666,1.4585 -1.176086,1.92456 l -0.63532,0.84739 h 1.32988 c 1.33547,0 2.868379,0.56648 2.868379,1.06001 0,0.43508 -0.972472,2.20577 -1.660496,3.02344 l -0.642492,0.76355 1.296099,0.46034 c 0.712853,0.25318 1.363199,0.63519 1.44521,0.84891 0.0841,0.21916 -0.202803,0.82649 -0.65805,1.39298 -0.694188,0.86382 -0.753544,1.0489 -0.424082,1.32233 0.483823,0.40154 0.488999,1.05248 0.01353,1.70272 -0.243336,0.33278 -0.283823,0.60865 -0.11855,0.8078 0.368932,0.44453 -2.0491,2.75851 -3.734457,3.57375 l -1.383203,0.66908 3.585074,0.01 3.585079,0.01 v -5.30985 c 0,-4.91506 0.03877,-5.35915 0.521465,-5.9728 0.394175,-0.50111 0.523488,-1.06658 0.529756,-2.31657 0.0052,-1.03885 0.150612,-1.8418 0.391099,-2.15975 0.57909,-0.76562 0.561128,-10.88092 -0.02036,-11.4624 -0.302275,-0.30227 -0.383832,-0.84521 -0.325916,-2.16967 l 0.07726,-1.76651 3.939769,0.0357 c 4.706049,0.0426 5.614937,0.33157 6.386518,2.03041 1.013089,2.23057 0.343862,6.35504 -1.118958,6.89617 -0.581885,0.21525 -0.578281,0.22581 0.217647,0.6374 1.106286,0.57208 1.657639,2.04865 1.650435,4.42 -0.007,2.31288 -0.635085,3.86381 -1.869427,4.61636 l -0.86254,0.52588 1.629579,0.001 1.629579,0.001 v -1.77298 c 0,-0.97514 0.112289,-1.88528 0.249531,-2.02252 0.237924,-0.23792 0.399977,-1.347 1.593655,-10.90682 0.284496,-2.27846 0.579739,-4.24373 0.656092,-4.36727 0.07635,-0.12355 1.468133,-0.22463 3.092844,-0.22463 h 2.95402 l 0.152575,0.84738 c 0.08392,0.46606 0.39483,2.666 0.690916,4.88874 0.296088,2.22275 0.696463,5.22678 0.889729,6.67562 0.193265,1.44885 0.482058,2.87842 0.641765,3.17683 0.159706,0.29842 0.290375,1.25427 0.290375,2.12411 0,1.23199 0.08644,1.58154 0.391099,1.58154 0.307164,0 0.391099,-0.36042 0.391099,-1.67938 0,-0.92365 0.117329,-1.75188 0.260732,-1.84051 0.160969,-0.0995 0.260733,-2.34417 0.260733,-5.86649 0,-3.52231 -0.09976,-5.767 -0.260733,-5.86648 -0.143403,-0.0886 -0.260732,-1.04698 -0.260732,-2.12967 v -1.96852 l 3.845806,0.0963 c 4.525898,0.1133 5.578197,0.47094 6.453132,2.19324 0.480186,0.94523 0.521465,1.54248 0.521465,7.54481 0,6.46533 -0.0053,6.52751 -0.648066,7.65028 -0.356435,0.62258 -0.943083,1.29253 -1.303663,1.48877 -0.606186,0.32992 -0.51313,0.3576 1.234714,0.36725 l 1.890312,0.0104 v -1.64262 c 0,-0.90344 0.121793,-1.76441 0.270651,-1.91326 0.280616,-0.28062 0.179921,-9.75296 -0.145825,-13.71766 l -0.166024,-2.02068 h 2.766474 c 1.984215,0 2.795711,0.0922 2.869868,0.32592 0.05687,0.17925 0.381517,1.8512 0.721445,3.71544 l 0.618048,3.38952 0.454374,-2.34659 c 0.249904,-1.29063 0.576036,-2.96658 0.724735,-3.72434 l 0.270361,-1.37774 2.618164,0.0741 2.61817,0.0741 -0.006,1.5644 c -0.003,0.86041 -0.1348,1.89468 -0.2919,2.29838 -0.38469,0.98846 -0.38103,10.3326 0.004,11.30792 0.15954,0.4037 0.27067,1.4673 0.24696,2.36357 -0.0414,1.56269 -0.0172,1.62958 0.58898,1.62958 0.60158,0 0.64187,-0.10389 0.83417,-2.15105 0.28458,-3.02962 0.29732,-9.61075 0.0265,-13.69796 l -0.22953,-3.4642 2.70649,0.0747 2.7065,0.0746 0.0798,1.55417 c 0.0439,0.85479 -0.0486,1.79414 -0.20558,2.08746 -0.29781,0.55647 -0.20574,10.29562 0.13011,13.76228 0.14246,1.47051 0.24908,1.75994 0.64832,1.75994 0.40389,0 0.50381,-0.29247 0.64578,-1.89031 0.33738,-3.79707 0.42667,-13.07934 0.13114,-13.63155 -0.15709,-0.29352 -0.24968,-1.23303 -0.20577,-2.08782 l 0.0798,-1.55417 2.26868,-0.0751 2.26867,-0.0751 0.30876,1.11808 c 0.16981,0.61494 0.70409,2.52603 1.18728,4.24687 l 0.87853,3.12879 -0.15237,-4.24779 -0.15236,-4.24778 2.17179,0.0761 2.17179,0.0761 0.0786,1.66828 c 0.0438,0.92995 -0.0427,1.78963 -0.19555,1.94246 -0.17927,0.17927 -0.27418,2.91855 -0.27418,7.91365 v 7.63946 h 2.19398 2.19398 l 0.1705,-1.75994 c 0.32348,-3.33897 0.43281,-13.15568 0.14454,-12.97751 -0.15015,0.0928 -0.27055,1.08857 -0.27055,2.23767 v 2.07048 h -1.56439 -1.5644 v -4.43246 -4.43245 h 5.86649 5.86648 v 4.43245 4.43246 h -1.56439 -1.5644 v -2.07048 c 0,-1.15003 -0.12035,-2.14485 -0.27073,-2.23779 -0.28573,-0.17659 -0.17964,9.18719 0.14556,12.84726 l 0.16796,1.89031 h 3.12745 3.12746 l -0.78196,-0.78195 c -1.34253,-1.34253 -1.47439,-2.13596 -1.47439,-8.87211 0,-6.03944 0.0101,-6.15384 0.655,-7.40697 0.83834,-1.62904 2.09292,-2.32014 4.42929,-2.4399 2.0928,-0.10728 3.74675,0.6302 4.55686,2.03185 0.48487,0.83893 0.53403,1.44771 0.60926,7.54522 0.0898,7.27896 -0.07,8.32101 -1.44115,9.39959 l -0.6665,0.52427 h 1.70853 1.70852 l 0.16816,-1.89031 c 0.32466,-3.64963 0.4279,-13.30468 0.14529,-13.58729 -0.14886,-0.14885 -0.27065,-1.06849 -0.27065,-2.04363 v -1.77298 h 2.33654 2.33654 l 0.30607,1.10811 c 0.16834,0.60946 0.70141,2.51607 1.1846,4.23691 l 0.87853,3.12879 -0.15236,-4.24779 -0.15237,-4.24778 2.17179,0.0761 2.17179,0.0761 0.0786,1.66828 c 0.0438,0.92995 -0.0427,1.78963 -0.19555,1.94246 -0.35138,0.35139 -0.38274,15.81384 -0.0321,15.81384 0.13316,0 0.42649,0.18438 0.65183,0.40973 0.34643,0.34642 0.40973,1.25447 0.40973,5.8779 v 5.46819 l 1.86832,-0.0766 c 1.85133,-0.0759 1.8686,-0.0833 1.89989,-0.81574 0.0175,-0.41074 0.27545,-0.93203 0.58049,-1.17329 1.17485,-0.92925 1.44577,-2.00758 1.71165,-6.81289 0.21115,-3.81619 0.35612,-4.83406 0.87693,-6.1569 0.34318,-0.87167 0.62396,-1.72734 0.62396,-1.90148 0,-0.17415 0.55161,-0.90635 1.2258,-1.62711 1.04156,-1.11351 1.17794,-1.37636 0.90733,-1.74878 -0.66309,-0.91255 -1.13136,-2.25003 -1.01403,-2.89628 0.067,-0.36894 0.44603,-1.88959 0.84234,-3.37921 l 0.72056,-2.70841 -0.62399,-0.47977 c -0.34319,-0.26387 -0.77064,-0.48237 -0.94989,-0.48556 -0.17926,-0.003 -0.32592,-0.17878 -0.32592,-0.3902 0,-0.45174 -0.56982,-0.76257 -5.07192,-2.7667 l -3.37716,-1.50336 -0.90046,0.79062 c -0.83426,0.73248 -1.01728,0.78258 -2.48932,0.68132 -1.20276,-0.0827 -1.90568,-0.30711 -2.89253,-0.92328 -1.54268,-0.96322 -2.21623,-1.98817 -2.21623,-3.37248 0,-2.37277 2.26917,-3.50342 5.34502,-2.66323 2.09683,0.57276 3.51989,2.18776 3.51989,3.99465 0,1.07613 0.0183,1.08788 4.92329,3.16443 2.77403,1.1744 3.33378,1.33012 3.97617,1.10618 0.72982,-0.25441 0.74765,-0.30544 0.74765,-2.14078 0,-2.00835 0.15729,-2.35528 1.43403,-3.16298 l 0.78219,-0.49484 -0.77166,-0.13948 c -0.60054,-0.10856 -0.80741,-0.31277 -0.93292,-0.92095 -0.0887,-0.4298 -0.31753,-1.03032 -0.50852,-1.33447 -0.30029,-0.47818 -0.27739,-0.65457 0.16926,-1.30366 0.28409,-0.41286 0.73,-1.33731 0.99091,-2.05432 0.6696,-1.84016 0.81001,-1.95744 2.32334,-1.94078 1.87594,0.0206 2.98651,0.48059 3.90026,1.61529 l 0.7877,0.97818 -0.33088,1.62915 c -0.56596,2.78664 -0.62092,2.65183 1.15156,2.8243 1.65034,0.16059 2.849,0.6495 3.55658,1.45066 0.23461,0.26564 0.96765,1.48993 1.62897,2.72064 1.06501,1.98198 1.2024,2.42517 1.2024,3.87875 0,1.51399 0.10466,1.81524 1.35132,3.88956 0.74323,1.23665 2.00453,3.2329 2.80288,4.43609 2.50099,3.76924 2.9256,4.53353 3.70933,6.67688 0.41957,1.14745 1.12029,2.58929 1.55714,3.2041 1.01473,1.4281 1.94461,3.80036 2.18569,5.57601 0.23189,1.70793 0.82505,3.25643 1.32016,3.44642 0.20397,0.0783 0.37084,0.28181 0.37084,0.45232 0,0.58046 2.12173,3.06426 2.68698,3.14551 0.3402,0.0489 0.66221,0.36771 0.81661,0.80853 0.28308,0.80819 0.0308,1.64622 -4.45185,14.78579 -2.90697,8.521 -3.02734,8.80325 -3.89509,9.13317 -0.42646,0.16214 -8.03827,0.23186 -20.70331,0.18963 l -20.02891,-0.0668 0.83605,-2.08586 0.83604,-2.08586 17.05936,-0.13037 17.05936,-0.13037 0.85103,-1.30068 c 0.92733,-1.4173 1.0832,-2.33505 0.4386,-2.58241 -0.22683,-0.087 -7.86582,-0.15826 -16.97552,-0.15826 -14.35021,0 -16.54373,-0.0504 -16.41823,-0.37749 0.0797,-0.20762 0.45943,-1.26359 0.8439,-2.34659 l 0.69905,-1.96911 h 16.37907 16.37908 l 0.63432,-0.84738 c 1.02486,-1.3691 1.46653,-2.39968 1.20783,-2.81829 -0.20026,-0.32405 -5.93992,-0.3856 -41.76336,-0.44787 -22.84216,-0.0397 -41.80025,-0.007 -42.12911,0.073 -0.56414,0.13696 -0.59359,0.25149 -0.52146,2.02768 l 0.0764,1.88252 22.90663,0.0666 c 21.67046,0.063 22.89663,0.0912 22.72134,0.52146 -0.10191,0.25017 -0.35863,0.98284 -0.57048,1.62815 -0.21185,0.64532 -0.50673,1.4953 -0.65528,1.88885 l -0.27009,0.71555 -22.06606,0.0667 -22.06606,0.0666 v 1.95549 1.95549 l 21.14451,0.13037 21.14452,0.13037 -0.89801,2.15178 -0.89801,2.15179 -44.58433,-0.0659 -44.584329,-0.0659 -0.888058,-2.20138 c -0.488433,-1.21076 -0.888058,-2.23739 -0.888058,-2.28141 0,-0.044 9.562368,-0.08 21.249708,-0.08 h 21.249707 v -1.9276 c 0,-1.5172 -0.0878,-1.9613 -0.41242,-2.08586 -0.22684,-0.0871 -10.23434,-0.15826 -22.2389,-0.15826 H 56.611218 l -0.705573,-2.16657 c -0.388067,-1.19162 -0.705574,-2.21825 -0.705574,-2.28141 0,-0.0632 10.051039,-0.0881 22.335644,-0.0555 12.284604,0.0326 22.609615,-0.009 22.944465,-0.0935 0.56926,-0.14287 0.60883,-0.27807 0.60883,-2.08003 v -1.92723 H 59.102878 c -47.175939,0 -42.886971,-0.20637 -41.684887,2.00577 1.203867,2.21543 -0.373819,2.02848 17.667813,2.09358 l 16.072911,0.058 0.811497,2.21776 0.811496,2.21776 -16.377345,0.0708 c -12.481468,0.054 -16.453168,0.1467 -16.696078,0.38969 -0.362858,0.36299 -0.168733,0.91577 0.93638,2.66638 l 0.666708,1.05614 h 16.655305 16.655307 l 0.446147,1.10811 c 0.245384,0.60946 0.667064,1.66543 0.937071,2.3466 l 0.490923,1.23848 -19.877058,-0.0104 c -16.873848,-0.009 -19.982455,-0.0677 -20.574646,-0.38925 z m 71.147919,-23.83789 c 1.202287,-0.73308 1.727619,-1.89831 1.57446,-3.49227 -0.104773,-1.09038 -0.283503,-1.454 -1.068125,-2.17305 -0.822541,-0.7538 -1.120575,-0.86355 -2.344998,-0.86355 -1.632306,0 -2.625852,0.61826 -3.199377,1.99089 -0.48775,1.16736 -0.451774,2.1441 0.118891,3.22783 0.890465,1.69104 3.259609,2.32203 4.919149,1.31015 z m -2.880173,-1.5303 c -0.556557,-0.61499 -0.569964,-2.47628 -0.0218,-3.02445 0.511297,-0.5113 1.770653,-0.53307 2.181756,-0.0377 0.483599,0.5827 0.40748,2.44071 -0.124049,3.02805 -0.580195,0.64111 -1.473064,0.65607 -2.03592,0.0341 z m 10.091619,1.68218 c 1.196422,-0.4999 1.507382,-1.4262 1.416271,-4.21888 l -0.07607,-2.33151 -0.837749,-0.081 -0.837747,-0.081 -0.07482,2.53028 c -0.06132,2.07392 -0.157107,2.58205 -0.531097,2.81734 -0.331947,0.20885 -0.580618,0.2089 -0.912564,1.9e-4 -0.363652,-0.22864 -0.471827,-0.72859 -0.532854,-2.46263 -0.0845,-2.40108 -0.330987,-2.9183 -1.335139,-2.80157 l -0.67415,0.0784 v 2.6459 c 0,2.27913 0.07229,2.72614 0.521465,3.22475 0.958046,1.06347 2.365194,1.31035 3.874447,0.67974 z m 8.006023,0.0891 c 0.65666,-0.35143 0.62469,-0.73321 -0.13972,-1.66834 l -0.62529,-0.76496 0.65777,-0.78172 c 0.8057,-0.95751 0.6857,-2.08737 -0.31525,-2.9682 -0.52939,-0.46586 -0.98139,-0.58665 -2.195188,-0.58665 -2.447244,0 -2.353378,-0.14151 -2.353378,3.54778 v 3.23126 h 0.912564 c 0.890838,0 0.912564,-0.0248 0.912564,-1.04293 0,-1.35606 0.505702,-1.36403 1.261158,-0.0199 0.48672,0.86601 0.7973,1.17775 1.29813,1.30297 0.0453,0.0113 0.30927,-0.10087 0.58664,-0.24932 z m -3.145928,-4.42328 c 0,-0.73727 0.06984,-0.8088 0.717015,-0.73433 0.568993,0.0655 0.717013,0.21706 0.717013,0.73433 0,0.51727 -0.14802,0.66886 -0.717013,0.73433 -0.647175,0.0745 -0.717015,0.003 -0.717015,-0.73433 z m 12.805008,4.43245 c 0.14667,0 0.21753,-1.35196 0.17423,-3.32434 l -0.073,-3.32434 -0.84738,-0.0817 -0.84739,-0.0817 v 2.00764 2.00764 l -0.97774,-1.92594 c -1.00087,-1.97149 -1.36313,-2.24515 -2.57074,-1.94206 l -0.63918,0.16043 0.0732,3.187 0.0732,3.18701 0.84738,0.0817 0.84738,0.0817 0.0142,-2.03719 0.0142,-2.0372 0.96767,1.93067 c 0.92319,1.84192 1.58631,2.46928 2.34954,2.22282 0.19097,-0.0617 0.45847,-0.11214 0.59442,-0.11214 z m 3.04754,-0.0521 c 0.17208,-0.17209 0.31287,-0.52407 0.31287,-0.7822 0,-0.37263 0.21193,-0.46932 1.02871,-0.46932 0.86535,0 1.0831,0.11386 1.37129,0.71702 0.35267,0.73813 1.1214,1.01895 1.72132,0.6288 0.2711,-0.17631 0.15643,-0.84925 -0.56145,-3.29487 -0.49618,-1.69032 -1.06015,-3.17345 -1.25326,-3.29583 -0.40247,-0.25507 -1.56048,-0.30035 -2.12648,-0.0831 -0.21256,0.0816 -0.82649,1.49272 -1.37513,3.16081 -0.95807,2.91293 -0.97475,3.02544 -0.50006,3.37254 0.60365,0.4414 0.97459,0.4538 1.38219,0.0462 z m 0.83434,-3.04671 c 0,-0.12694 0.16188,-0.61581 0.35974,-1.08637 0.38988,-0.92726 0.3246,-0.98975 0.83113,0.7957 0.12042,0.42447 0.0234,0.52147 -0.52147,0.52147 -0.36817,0 -0.6694,-0.10386 -0.6694,-0.2308 z m 6.23033,3.12122 c 0.25478,-0.16133 0.37201,-0.82437 0.3911,-2.21201 0.0295,-2.14417 0.25223,-2.55824 0.54284,-1.00913 0.26543,1.41487 0.59571,1.89511 1.30333,1.89511 0.72175,0 0.88704,-0.2025 1.48522,-1.81956 l 0.43607,-1.17886 0.0202,2.0115 c 0.0219,2.17407 0.3525,2.68834 1.53048,2.38029 0.42677,-0.11161 0.52684,-0.30039 0.44206,-0.834 -0.0603,-0.37935 -0.18294,-1.71872 -0.2726,-2.97636 -0.17427,-2.44457 -0.48256,-3.05839 -1.53606,-3.05839 -0.80011,0 -1.13382,0.45259 -1.51411,2.0535 -0.17455,0.73481 -0.39299,1.33602 -0.48543,1.33602 -0.0924,0 -0.3016,-0.53024 -0.46478,-1.17831 -0.47266,-1.87707 -1.65117,-2.70517 -2.68306,-1.8853 -0.30875,0.24532 -0.45096,1.04759 -0.57501,3.24413 -0.14783,2.61735 -0.1174,2.94582 0.29517,3.18604 0.56643,0.32981 0.63103,0.33251 1.08458,0.0453 z m -42.738614,-1.13048 c -0.004,-0.78355 0.28234,-1.65849 0.977747,-2.98717 0.928866,-1.77474 0.958667,-1.90397 0.536815,-2.32765 -0.674674,-0.67761 -1.582827,-0.1476 -2.020751,1.17932 -0.194566,0.58954 -0.434487,1.07189 -0.533159,1.07189 -0.09867,0 -0.394248,-0.47644 -0.65684,-1.05877 -0.532943,-1.18185 -1.192127,-1.6582 -1.958199,-1.41506 -0.723522,0.22963 -0.649591,0.58323 0.531314,2.5412 0.741434,1.22931 1.04293,2.02226 1.04293,2.74296 0,1.23547 0.112548,1.36139 1.216753,1.36139 0.849556,0 0.86898,-0.0249 0.86339,-1.10811 z m 54.972434,0.40159 c -0.0793,-0.67908 -0.13567,-0.70365 -1.45135,-0.6325 -1.30867,0.0708 -1.36884,0.0452 -1.36884,-0.58285 0,-0.59867 0.10975,-0.66392 1.23848,-0.73635 1.12603,-0.0722 1.23848,-0.13865 1.23848,-0.7313 0,-0.59265 -0.11245,-0.65905 -1.23848,-0.7313 -1.01333,-0.065 -1.23848,-0.1692 -1.23848,-0.57302 0,-0.41157 0.22738,-0.50665 1.36884,-0.57236 1.26527,-0.0728 1.36885,-0.12814 1.36885,-0.73065 0,-0.62933 -0.0663,-0.65449 -1.92164,-0.72907 -2.71952,-0.1093 -2.90191,0.0958 -2.90191,3.26359 0,3.41499 0.0378,3.46233 2.76418,3.46233 h 2.22437 z m 61.63291,-0.91002 c -0.17209,-0.17208 -0.31354,-0.78806 -0.31434,-1.36884 -0.002,-1.48329 -0.42804,-2.84747 -1.07068,-3.42866 -0.73414,-0.66394 -1.53519,-2.27571 -1.53519,-3.08891 0,-0.47294 -0.74479,-1.4656 -2.63971,-3.51823 l -2.63972,-2.85942 -1.46682,-0.0772 -1.46682,-0.0772 -1.33061,-2.21623 c -1.76662,-2.94243 -2.0111,-2.97162 -4.5656,-0.54505 -1.95922,1.86112 -2.58275,2.12435 -3.45954,1.4605 -0.55498,-0.4202 -1.16081,-0.19217 -3.20579,1.20666 -1.01658,0.69537 -1.09977,0.84523 -1.24619,2.24475 -0.20967,2.00421 -0.78498,4.17346 -1.76369,6.6502 l -0.80789,2.04444 0.62841,1.93888 0.6284,1.93887 13.28433,0.004 c 10.33226,0.003 13.2148,-0.0653 12.97145,-0.30869 z M 27.562414,157.49528 c 0,-0.21511 -0.11733,-0.3911 -0.260733,-0.3911 -0.143403,0 -0.260732,0.17599 -0.260732,0.3911 0,0.2151 0.117329,0.39109 0.260732,0.39109 0.143403,0 0.260733,-0.17599 0.260733,-0.39109 z m 2.28141,-0.034 c 0.322657,-0.0865 0.586649,-0.35786 0.586649,-0.60311 0,-0.61587 -1.483112,-0.39308 -1.841534,0.27664 -0.287416,0.53704 0.09648,0.63692 1.254885,0.32647 z m 2.620363,-0.67 c 0.457568,-0.45757 0.383139,-0.73005 -0.199413,-0.73005 -0.281761,0 -0.637877,0.23466 -0.791371,0.52146 -0.231955,0.43341 -0.198284,0.52147 0.199414,0.52147 0.26317,0 0.619287,-0.1408 0.79137,-0.31288 z m 2.659473,-0.49972 c 0,-0.12668 -0.107735,-0.23033 -0.239407,-0.23033 -0.131676,0 -0.425,-0.0712 -0.651832,-0.15827 -0.289992,-0.11128 -0.412424,-0.006 -0.412424,0.35495 0,0.40682 0.135114,0.48737 0.651831,0.3886 0.358508,-0.0685 0.651832,-0.22826 0.651832,-0.35495 z m -7.561246,-1.27326 c 0,-0.14341 -0.110405,-0.26074 -0.245344,-0.26074 -0.13494,0 -0.317859,0.11733 -0.406487,0.26074 -0.08863,0.1434 0.02177,0.26073 0.245344,0.26073 0.223567,0 0.406487,-0.11733 0.406487,-0.26073 z m 2.455635,-0.15827 c 0.344373,-0.13214 0.622055,-1.1454 0.313898,-1.1454 -0.391652,0 -1.987335,0.84021 -1.987335,1.04643 0,0.28494 1.030066,0.34586 1.673437,0.099 z m 2.51961,-0.62393 c 0.131673,0 0.239407,-0.29333 0.239407,-0.65183 0,-0.35851 -0.107734,-0.65184 -0.239407,-0.65184 -0.646765,0 -1.064256,0.37988 -1.064256,0.96836 0,0.48727 0.104124,0.61187 0.412424,0.49357 0.226833,-0.0871 0.520157,-0.15826 0.651832,-0.15826 z m 2.440285,-1.18159 c 0.479068,-0.36235 0.461648,-0.38281 -0.325916,-0.38281 -0.565761,0 -0.832031,0.12516 -0.832031,0.3911 0,0.49244 0.500656,0.48886 1.157947,-0.008 z m -8.197728,-0.12208 c 0,-0.1434 -0.110405,-0.26073 -0.245345,-0.26073 -0.13494,0 -0.317858,0.11733 -0.406486,0.26073 -0.08863,0.14341 0.02178,0.26074 0.245345,0.26074 0.223567,0 0.406486,-0.11733 0.406486,-0.26074 z m 2.046955,-0.54697 c 0.767422,-0.26752 1.036511,-0.7151 0.657682,-1.09393 -0.131268,-0.13127 -1.501564,0.41016 -1.883366,0.74415 -0.09386,0.0821 0.192239,0.63602 0.328505,0.63602 0.04184,0 0.445569,-0.12881 0.897179,-0.28624 z m 2.861144,-0.92609 c 0.502267,-0.1345 0.576751,-0.27886 0.435089,-0.84328 -0.223354,-0.88992 -0.20978,-0.88305 -1.01748,-0.51503 -0.426957,0.19453 -0.64136,0.45827 -0.55516,0.68291 0.07724,0.20129 0.140441,0.47372 0.140441,0.60539 0,0.27932 0.17072,0.2913 0.99711,0.07 z m -6.211762,-0.6128 c 0,-0.1434 -0.11733,-0.26073 -0.260732,-0.26073 -0.143403,0 -0.260733,0.11733 -0.260733,0.26073 0,0.14341 0.11733,0.26074 0.260733,0.26074 0.143402,0 0.260732,-0.11733 0.260732,-0.26074 z m 2.098809,-0.91926 c 0.794285,-0.41074 0.962713,-0.75552 0.506739,-1.03733 -0.295483,-0.18262 -1.82335,0.81634 -1.82335,1.19215 0,0.35105 0.437948,0.29956 1.316611,-0.15482 z m 7.157199,-0.3844 c 0.46066,-0.50902 0.455403,-0.52146 -0.220322,-0.52146 -0.51842,0 -0.692242,0.13094 -0.692242,0.52146 0,0.28681 0.09915,0.52147 0.220321,0.52147 0.121179,0 0.432686,-0.23466 0.692243,-0.52147 z m -10.95077,-0.26073 c 0.08863,-0.14341 -0.0287,-0.26073 -0.260732,-0.26073 -0.232031,0 -0.349361,0.11732 -0.260733,0.26073 0.08863,0.1434 0.205958,0.26073 0.260733,0.26073 0.05477,0 0.172104,-0.11733 0.260732,-0.26073 z m 7.170147,-1.19714 c 0,-0.0774 -0.123415,-0.37141 -0.274254,-0.65326 -0.271394,-0.5071 -0.282212,-0.50678 -1.036785,0.0305 -0.650072,0.46289 -0.717526,0.61504 -0.457375,1.0316 0.278225,0.44552 0.369722,0.45525 1.036785,0.1103 0.402397,-0.20809 0.731629,-0.44171 0.731629,-0.51916 z m -4.679441,-1.24 c -0.187566,-0.18757 -0.509615,-0.0425 -1.045687,0.47111 -1.03873,0.99517 -0.733532,1.36374 0.408168,0.49292 0.628742,-0.47957 0.825085,-0.77647 0.637519,-0.96403 z m -3.664003,0.35128 c 0,-0.14341 -0.182919,-0.26074 -0.406486,-0.26074 -0.223568,0 -0.333973,0.11733 -0.245345,0.26074 0.08863,0.1434 0.271547,0.26073 0.406486,0.26073 0.13494,0 0.245345,-0.11733 0.245345,-0.26073 z m 10.429305,-0.52147 c 0.295355,-0.55188 0.105372,-0.66279 -0.489687,-0.28589 -0.197625,0.12518 -0.278697,0.35804 -0.180161,0.51747 0.248582,0.40222 0.349282,0.3674 0.669848,-0.23158 z m 39.795105,-1.62958 c 0.01835,-0.89627 0.119671,-2.0109 0.22514,-2.47696 l 0.191764,-0.84738 h -1.10292 c -1.075718,0 -1.098203,0.0177 -0.911707,0.71702 0.105167,0.39435 0.245803,1.50899 0.312525,2.47696 0.109891,1.59426 0.174524,1.75994 0.686564,1.75994 0.515995,0 0.568162,-0.14201 0.598634,-1.62958 z m 23.721179,0.91257 c -0.07915,-0.39436 -0.43547,-2.30097 -0.791826,-4.23691 -0.356357,-1.93594 -0.697966,-3.75455 -0.759131,-4.04135 -0.06116,-0.28681 -0.124818,0.79157 -0.141453,2.39638 -0.0176,1.6982 0.07874,2.98522 0.230488,3.079 0.143403,0.0886 0.260732,0.91686 0.260732,1.84052 0,1.6313 0.01924,1.67937 0.67255,1.67937 0.594752,0 0.655901,-0.0829 0.52864,-0.71701 z m 3.085914,-3.12879 c 0.09328,-2.1152 0.223234,-4.10261 0.288795,-4.41648 0.06556,-0.31387 0.01643,-0.63418 -0.109166,-0.71181 -0.125602,-0.0776 -0.292297,0.35517 -0.370433,0.96177 -0.176469,1.37 -1.197159,6.93695 -1.385387,7.55604 -0.1104,0.36311 0.01903,0.45628 0.633935,0.45628 h 0.772663 z m 17.883793,-0.0643 c -0.67298,-2.15056 -1.29403,-3.98053 -1.38011,-4.06662 -0.23683,-0.23682 0.10465,3.87013 0.36373,4.37451 0.12405,0.24152 0.22556,1.15083 0.22556,2.02068 v 1.58153 h 1.00721 1.00722 z m 37.26993,3.58419 c -0.008,-0.42695 -2.20089,-7.44348 -2.38314,-7.62573 -0.22889,-0.22889 0.0882,3.87113 0.33637,4.34943 0.12531,0.24152 0.22785,1.15083 0.22785,2.02068 v 1.58153 h 0.91256 c 0.55954,0 0.91017,-0.12608 0.90636,-0.32591 z m -130.657594,-0.5475 c 0.490865,-0.5225 0.520669,-0.65829 0.202459,-0.92238 -0.29999,-0.24897 -0.479897,-0.17396 -0.917697,0.38261 -0.887127,1.1278 -0.27276,1.59145 0.715238,0.53977 z m 4.544502,-0.13091 c 0.628053,-0.41412 0.674012,-0.52351 0.337339,-0.80292 -0.398003,-0.33032 -0.718251,-0.23565 -1.514588,0.44774 -0.468954,0.40243 -0.396032,0.8393 0.139607,0.83634 0.17079,-0.001 0.637728,-0.21747 1.037642,-0.48116 z m -2.688444,-2.4991 c -0.537346,-0.52967 -0.551433,-0.5302 -0.919671,-0.0347 -0.328062,0.44147 -0.321021,0.56175 0.05736,0.97985 0.4061,0.44874 0.459883,0.45077 0.919671,0.0347 0.47639,-0.43113 0.474985,-0.45512 -0.05736,-0.97986 z m 4.540759,0.74442 c 0.224637,-0.58539 0.215459,-0.59664 -0.363203,-0.44532 -0.534562,0.13979 -0.654945,0.37663 -0.347642,0.68393 0.28552,0.28552 0.542868,0.19914 0.710845,-0.23861 z m 112.279737,-1.56004 c 0.39493,-1.03873 0.32818,-10.08123 -0.0785,-10.63742 -0.41507,-0.56764 -1.12555,-0.33378 -1.33272,0.43867 -0.25586,0.95402 -0.17668,9.48506 0.0947,10.19875 0.13986,0.36784 0.43608,0.66881 0.65829,0.66881 0.2222,0 0.51843,-0.30097 0.65828,-0.66881 z m -81.697254,0.20323 c 0.376548,-0.23944 0.863693,-1.46369 0.863693,-2.17057 0,-0.54166 -1.084392,-1.79631 -1.552545,-1.79631 -0.166908,0 -0.272583,0.80865 -0.272583,2.08586 0,2.08851 0.155782,2.39329 0.961435,1.88102 z M 85.132175,142.451 c 0.220921,-0.22092 0.312879,-1.73821 0.312879,-5.1625 0,-5.0169 -0.0917,-5.47539 -1.095077,-5.47539 -0.437037,0 -0.469319,0.37662 -0.469319,5.47539 0,5.09877 0.03228,5.47538 0.469319,5.47538 0.258125,0 0.610114,-0.14079 0.782198,-0.31288 z m -57.693891,-0.48896 c 0.224173,-0.70631 0.100959,-0.7989 -0.489037,-0.36748 -0.26509,0.19383 -0.404643,0.47757 -0.310119,0.63051 0.271022,0.43852 0.612123,0.32625 0.799156,-0.26303 z m 45.095421,-6.17275 c -0.203202,-2.54357 -0.640119,-3.53024 -0.658102,-1.48618 -0.0063,0.70984 -0.107234,1.78606 -0.224418,2.3916 -0.23554,1.21713 -0.1705,1.37599 0.563368,1.37599 0.470414,0 0.490146,-0.14105 0.319152,-2.28141 z m 98.692375,2.02067 c 0,-0.1434 -0.12425,-0.26073 -0.27612,-0.26073 -0.15186,0 -0.2036,0.11733 -0.11498,0.26073 0.0886,0.14341 0.21289,0.26074 0.27613,0.26074 0.0632,0 0.11497,-0.11733 0.11497,-0.26074 z m 1.96028,-1.59504 c 0.71438,-0.59048 1.53035,-1.23581 1.81325,-1.43408 0.50181,-0.3517 0.48755,-0.41456 -0.58475,-2.57668 -0.60451,-1.21889 -1.19724,-2.21618 -1.31718,-2.21618 -0.11993,0 -0.48281,0.56525 -0.80639,1.25611 -0.4488,0.95821 -0.60613,1.82391 -0.66337,3.65026 -0.0413,1.31678 2.5e-4,2.39415 0.0923,2.39415 0.092,0 0.75179,-0.48311 1.46618,-1.07358 z M 61.156917,134.74635 c 0.89692,-0.75894 0.978728,-1.75748 0.207194,-2.52902 -1.026283,-1.02628 -1.21012,-0.85003 -1.21012,1.16018 0,1.00382 0.104332,1.82513 0.231848,1.82513 0.127514,0 0.474502,-0.20533 0.771078,-0.45629 z"
       id="path854" />
  </g>
</svg>
